<svg width="83" height="83" viewBox="0 0 83 83" fill="none" xmlns="http://www.w3.org/2000/svg">
<g clip-path="url(#clip0_313_724)">
<path d="M68.0025 42.3518L55.875 36.7693V20.7743C55.8694 20.4388 55.7675 20.1119 55.5813 19.8326C55.3952 19.5534 55.1326 19.3335 54.825 19.1993L41.7 13.1618C41.4696 13.0552 41.2188 13 40.965 13C40.7112 13 40.4604 13.0552 40.23 13.1618L27.105 19.1993C26.8012 19.3399 26.5442 19.5647 26.3643 19.8469C26.1844 20.1292 26.0892 20.4571 26.09 20.7918V36.7868L14.015 42.3518C13.7112 42.4924 13.4542 42.7172 13.2743 42.9994C13.0944 43.2817 12.9992 43.6096 13 43.9443V61.0593C12.9992 61.3941 13.0944 61.722 13.2743 62.0042C13.4542 62.2865 13.7112 62.5113 14.015 62.6518L27.14 68.6893C27.3704 68.7959 27.6212 68.8512 27.875 68.8512C28.1288 68.8512 28.3796 68.7959 28.61 68.6893L41 62.9843L53.39 68.6893C53.6204 68.7959 53.8712 68.8512 54.125 68.8512C54.3788 68.8512 54.6296 68.7959 54.86 68.6893L67.985 62.6518C68.2888 62.5113 68.5459 62.2865 68.7258 62.0042C68.9057 61.722 69.0008 61.3941 69 61.0593V43.9443C69.0024 43.6115 68.9098 43.2849 68.7331 43.0028C68.5565 42.7208 68.303 42.4949 68.0025 42.3518ZM63.085 43.9443L54.1425 48.0218L45.2 43.9443L54.1425 39.8318L63.085 43.9443ZM41 16.6618L49.9425 20.7743L41 24.8868L32.075 20.7743L41 16.6618ZM27.875 39.8143L36.8175 43.9268L27.875 48.0218L18.9325 43.9443L27.875 39.8143ZM39.25 59.9218L27.875 65.1718L16.5 59.9218V46.6743L27.14 51.5218C27.3656 51.6232 27.6102 51.6757 27.8575 51.6757C28.1049 51.6757 28.3494 51.6232 28.575 51.5218L39.215 46.6218L39.25 59.9218ZM29.625 36.7693V23.5218L40.265 28.4218C40.4954 28.5284 40.7462 28.5837 41 28.5837C41.2538 28.5837 41.5046 28.5284 41.735 28.4218L52.375 23.5218V36.7868L41 42.0368L29.625 36.7693ZM65.5175 59.9393L54.1425 65.1893L42.75 59.9393V46.6568L53.4075 51.5218C53.6307 51.6207 53.8721 51.6718 54.1163 51.6718C54.3604 51.6718 54.6018 51.6207 54.825 51.5218L65.465 46.6218L65.5175 59.9393Z" fill="black"/>
</g>
<defs>
<clipPath id="clip0_313_724">
<rect width="83" height="83" fill="white"/>
</clipPath>
</defs>
</svg>
