<svg width="83" height="83" viewBox="0 0 83 83" fill="none" xmlns="http://www.w3.org/2000/svg">
<g clip-path="url(#clip0_313_724)">
<path d="M37.5674 34.8896C38.5401 34.8922 39.4645 35.2702 40.1406 35.9287L44.3291 40.0098C44.6652 40.3375 44.9292 40.7246 45.1084 41.1475C45.2875 41.5703 45.379 42.0225 45.3779 42.4775C45.3768 42.9326 45.2837 43.3845 45.1025 43.8066C44.9212 44.2289 44.6543 44.6151 44.3164 44.9414L44.2754 44.9824L17.2207 73.209C16.4341 74.0175 15.5133 74.4604 14.541 74.5H14.3945C13.4738 74.4969 12.5956 74.1621 11.9258 73.5732L11.7949 73.4521L11.791 73.4482L5.53418 67.2871C5.18499 66.9415 4.91479 66.5319 4.73828 66.085C4.56163 65.6377 4.48173 65.1611 4.50293 64.6846C4.54491 63.7775 5.00082 62.8874 5.83984 62.1172L34.9492 35.9512L34.9688 35.9336L34.9873 35.916C35.6672 35.2606 36.5944 34.8871 37.5674 34.8896ZM41.751 7.5H41.752C44.482 7.4984 47.1853 8.01678 49.709 9.02539L49.7119 9.02734C56.1803 11.5966 60.5322 15.0394 62.7285 17.0693L63.1387 17.4561L63.1436 17.4609C64.5233 18.8043 65.8002 20.2438 66.9629 21.7686C67.6142 22.6621 67.5809 23.6587 67.5078 24.6924C67.5078 24.6929 67.508 24.6968 67.5068 24.708C67.5057 24.7188 67.5023 24.744 67.5 24.7686C67.4952 24.8193 67.4883 24.906 67.4883 25.0078V27.8955L69.8506 26.2354C70.1934 25.9944 70.6106 25.8618 71.042 25.8613H71.0488C71.3108 25.8598 71.5701 25.908 71.8105 26.0039C72.0507 26.0998 72.2664 26.2404 72.4463 26.415L72.4502 26.4189L77.9424 31.7129V31.7139L77.9619 31.7334H77.9629C78.3072 32.0875 78.4953 32.5475 78.5 33.0195C78.5046 33.4917 78.3254 33.9555 77.9883 34.3154L77.9814 34.3223C77.9729 34.3315 77.9638 34.3419 77.9541 34.3516L69.0547 42.9131C68.6863 43.2646 68.1831 43.4675 67.6514 43.4668H67.6387C67.377 43.4685 67.1182 43.4199 66.8779 43.3242C66.6378 43.2285 66.4221 43.0885 66.2422 42.9141L66.2383 42.9111L60.7432 37.6123C60.5619 37.4376 60.4194 37.2317 60.3232 37.0078C60.2273 36.7842 60.1782 36.5456 60.1777 36.3057C60.1773 36.0656 60.226 35.8266 60.3213 35.6025C60.4155 35.3811 60.554 35.1768 60.7314 35.0029L60.751 34.9863L60.7607 34.9775L61.0527 34.707L61.0977 34.666L61.1387 34.6211C61.2982 34.4475 61.421 34.2408 61.4971 34.0137C61.5733 33.7861 61.6007 33.5441 61.5762 33.3047L61.4951 32.5215L60.8047 32.1426C59.9893 31.6953 59.0556 31.5046 58.1299 31.5928L58.1182 31.5938C57.6751 31.6395 56.5794 31.8449 55.1436 32.7051L55.1387 32.708C54.6054 33.0299 53.71 33.7501 52.8438 34.4717C51.9373 35.2267 50.9418 36.0866 50.1602 36.7666L50.1592 36.7676C49.9574 36.9436 49.6862 37.043 49.4014 37.0352C49.1169 37.0273 48.8539 36.9137 48.6641 36.7285L48.6621 36.7266L43.1426 31.3506L43.1406 31.3486C42.9617 31.1748 42.8601 30.9508 42.8438 30.7207C42.8275 30.4908 42.8968 30.2581 43.0469 30.0654L43.0508 30.0605C44.0669 28.7437 44.9136 27.4929 45.5107 26.4756C45.8078 25.9695 46.0566 25.4982 46.2344 25.0908C46.323 24.8877 46.4043 24.6772 46.4639 24.4717C46.5163 24.2908 46.5848 24.0034 46.5693 23.6836V23.6807C46.4041 20.3944 45.3685 17.958 43.0674 16.1553L43.0566 16.1475L42.7734 15.9414C42.0774 15.4653 41.1501 15.0132 40.1826 14.6523C39.0634 14.2349 37.7699 13.8952 36.5381 13.7959H36.5391C35.4068 13.7033 34.2663 13.772 33.1543 14.001L33.1133 14.0107C32.5896 14.1343 32.0735 14.288 31.5684 14.4717L31.5596 14.4746C31.3389 14.5564 31.0947 14.5671 30.8662 14.5039C30.6382 14.4408 30.4447 14.3095 30.3096 14.1377C30.1749 13.9665 30.1034 13.763 30.1006 13.5576C30.0978 13.3523 30.1625 13.1467 30.292 12.9727C30.9103 12.1444 31.6043 11.3716 32.3643 10.6621C33.5964 9.55994 37.0991 7.5 41.751 7.5Z" stroke="black" stroke-width="3"/>
</g>
<defs>
<clipPath id="clip0_313_724">
<rect width="83" height="83" fill="white"/>
</clipPath>
</defs>
</svg>
