<svg width="71" height="71" viewBox="0 0 71 71" fill="none" xmlns="http://www.w3.org/2000/svg">
<path d="M52.3438 29.75C53.3358 29.75 54.2607 29.9265 55.123 30.2754C55.992 30.627 56.7432 31.1091 57.3809 31.7217C58.0228 32.3384 58.5377 33.0533 58.9268 33.8682C59.3084 34.6674 59.5 35.5218 59.5 36.4375C59.5 37.3562 59.3149 38.2129 58.9473 39.0137C58.5757 39.823 58.0642 40.5345 57.4092 41.1494C56.7541 41.7644 55.993 42.2476 55.123 42.5996C54.2607 42.9485 53.3358 43.125 52.3438 43.125C51.9975 43.125 51.66 43.1036 51.3311 43.0615L51.0967 43.0312L50.9248 43.1934L36.8809 56.3779C36.4988 56.7366 36.0606 57.0086 35.5635 57.1953C35.0612 57.3839 34.5279 57.4849 33.9609 57.499C33.3861 57.4981 32.8544 57.3976 32.3613 57.1992C31.8573 56.9964 31.4235 56.7224 31.0566 56.3779C30.69 56.0337 30.4011 55.6298 30.1885 55.1641C29.9803 54.7079 29.875 54.2176 29.875 53.6875C29.875 53.186 29.9731 52.7063 30.1699 52.2441C30.3641 51.7885 30.6567 51.3725 31.0566 50.9971L45.1016 37.8125L45.292 37.6348L45.2539 37.376C45.2097 37.0713 45.1875 36.7585 45.1875 36.4375C45.1875 35.5188 45.3726 34.6621 45.7402 33.8613C46.1125 33.0506 46.6169 32.347 47.2549 31.748C47.8931 31.1489 48.6542 30.664 49.5439 30.2959C50.4224 29.9325 51.3543 29.75 52.3438 29.75ZM52.3438 31.625C51.6457 31.625 50.9834 31.7482 50.3623 31.998C49.75 32.2444 49.2105 32.5845 48.748 33.0186C48.2854 33.4528 47.9202 33.9627 47.6543 34.5449C47.3841 35.1368 47.25 35.7698 47.25 36.4375C47.25 37.0189 47.3706 37.5931 47.6025 38.1582L32.5498 52.3125C32.1538 52.6843 31.9375 53.15 31.9375 53.6875C31.9375 54.225 32.1538 54.6907 32.5498 55.0625C32.9453 55.4338 33.4266 55.625 33.9688 55.625C34.5108 55.625 34.9922 55.4346 35.3877 55.0635L50.4912 40.9053C51.1023 41.1327 51.7203 41.25 52.3438 41.25C53.0418 41.25 53.7041 41.1268 54.3252 40.877C54.9375 40.6306 55.477 40.2906 55.9395 39.8564C56.4021 39.4222 56.7673 38.9123 57.0332 38.3301C57.3034 37.7382 57.4375 37.1052 57.4375 36.4375C57.4375 35.7383 57.2647 35.0488 56.9316 34.374L56.6328 33.7695L56.1406 34.2314L52.792 37.375H51.3125V36.0459L54.6475 32.916L55.2021 32.3965L54.5049 32.0938C53.7937 31.7844 53.0723 31.625 52.3438 31.625ZM29.375 12.5C31.0053 12.5 32.5286 12.7887 33.9492 13.3623C35.3792 13.9397 36.6266 14.724 37.6963 15.7139C38.7631 16.701 39.6019 17.8661 40.2129 19.2139C40.8207 20.5548 41.125 21.982 41.125 23.5C41.125 24.4446 41.0033 25.3664 40.7598 26.2666C40.5169 27.1642 40.153 28.0121 39.667 28.8105C39.1762 29.6169 38.601 30.3583 37.9414 31.0352C37.2898 31.7038 36.5204 32.2981 35.6309 32.8164L34.7061 33.3545L35.7129 33.7188C36.7229 34.0834 37.686 34.5273 38.6016 35.0518C39.3517 35.4815 40.0645 35.9557 40.7412 36.4727L39.3174 37.8242C37.961 36.7964 36.4732 35.9956 34.8525 35.4268C33.0919 34.8089 31.2649 34.5 29.375 34.5C27.9301 34.5 26.5316 34.6775 25.1807 35.0332C23.836 35.3873 22.5775 35.8808 21.4082 36.5146C20.2372 37.1495 19.1721 37.9247 18.2148 38.8389C17.2607 39.7501 16.4372 40.7552 15.7451 41.8535C15.0506 42.9557 14.5134 44.1427 14.1338 45.4131C13.7994 46.5323 13.6122 47.687 13.5713 48.875H11.5098C11.5567 47.3101 11.8228 45.8008 12.3115 44.3457C12.8528 42.7342 13.6334 41.2469 14.6543 39.8818C15.6785 38.5124 16.8894 37.2943 18.2891 36.2285C19.6796 35.1697 21.2589 34.3334 23.0303 33.7207L24.0293 33.375L23.1289 32.8223C21.3892 31.7527 20.0452 30.416 19.085 28.8135C18.1285 27.2172 17.6409 25.4496 17.625 23.5C17.625 21.982 17.9291 20.5631 18.5361 19.2383C19.1479 17.903 19.981 16.7354 21.0352 15.7314C22.0868 14.7299 23.3315 13.9391 24.7754 13.3623C26.2129 12.7881 27.7448 12.5 29.375 12.5ZM29.3691 14.375C28.0353 14.3757 26.7843 14.6112 25.6211 15.0859C24.4674 15.5568 23.4434 16.2022 22.5527 17.0225C21.657 17.8475 20.955 18.8245 20.4492 19.9482C19.9417 21.076 19.6875 22.2615 19.6875 23.5C19.6875 24.7665 19.9407 25.9542 20.4512 27.0566C20.9562 28.147 21.6473 29.1118 22.5215 29.9482C23.3991 30.788 24.4269 31.4432 25.5996 31.915C26.779 32.3895 28.0389 32.625 29.375 32.625C30.696 32.625 31.9483 32.3892 33.127 31.915C34.2976 31.444 35.324 30.7971 36.2012 29.9736C37.0772 29.1512 37.7761 28.1859 38.2969 27.082C38.7588 26.1028 39.0111 25.063 39.0557 23.9668L39.0625 23.4932C39.0616 22.2431 38.808 21.0584 38.2998 19.9453C37.7947 18.8389 37.102 17.8725 36.2246 17.0488C35.3475 16.2255 34.3144 15.5715 33.1299 15.0859C31.9361 14.5966 30.6829 14.36 29.375 14.375H29.3691Z" fill="black" stroke="black"/>
</svg>
