<svg width="226" height="106" viewBox="0 0 226 106" fill="none" xmlns="http://www.w3.org/2000/svg">
<path d="M20.5616 17.16H16.0016V30H11.4416V17.16H6.8816V13.2H20.5616V17.16ZM33.0379 30V23.4H27.0379V30H22.4779V13.2H27.0379V19.32H33.0379V13.2H37.5979V30H33.0379ZM53.9066 30H40.9466V13.2H53.6666V17.16H45.5066V19.56H52.4666V23.28H45.5066V26.04H53.9066V30ZM76.5238 30H63.5638V13.2H76.2838V17.16H68.1238V19.56H75.0838V23.28H68.1238V26.04H76.5238V30ZM79.2932 30V13.2H83.9732V30H79.2932ZM95.3666 20.52H103.791C103.839 20.952 103.887 21.384 103.887 21.768C103.887 24.192 103.119 26.208 101.583 27.816C100.047 29.448 98.0306 30.24 95.5346 30.24C92.9906 30.24 90.9026 29.424 89.2226 27.792C87.5426 26.16 86.7266 24.12 86.7266 21.672C86.7266 19.248 87.5666 17.184 89.2946 15.504C91.0226 13.824 93.1346 12.96 95.6786 12.96C96.5426 12.96 97.3586 13.056 98.1266 13.248C98.8946 13.44 99.5186 13.656 99.9986 13.92C100.479 14.184 100.911 14.448 101.271 14.712C101.631 14.976 101.895 15.192 102.039 15.36L102.279 15.648L99.0866 18.864C99.0386 18.816 98.9906 18.768 98.9426 18.696C98.8946 18.624 98.7506 18.48 98.5346 18.288C98.3186 18.096 98.0786 17.904 97.8386 17.76C97.5986 17.616 97.2626 17.472 96.8786 17.352C96.4706 17.232 96.0386 17.16 95.6066 17.16C94.3346 17.16 93.3026 17.592 92.4866 18.432C91.6706 19.296 91.2866 20.352 91.2866 21.648C91.2866 22.944 91.6946 24.024 92.5106 24.888C93.3266 25.752 94.3586 26.16 95.6066 26.16C97.5506 26.16 98.7506 25.368 99.1826 23.76H95.3666V20.52ZM117.085 30V23.4H111.085V30H106.525V13.2H111.085V19.32H117.085V13.2H121.645V30H117.085ZM137.233 17.16H132.673V30H128.113V17.16H123.553V13.2H137.233V17.16ZM150.358 17.592C150.358 17.976 150.526 18.312 150.886 18.6C151.222 18.888 151.942 19.248 153.022 19.704C156.118 21.048 157.678 22.824 157.678 25.008C157.678 26.496 157.078 27.744 155.902 28.752C154.726 29.76 153.214 30.24 151.366 30.24C150.55 30.24 149.782 30.168 149.014 29.976C148.246 29.784 147.622 29.568 147.142 29.304C146.638 29.064 146.206 28.8 145.822 28.536C145.438 28.296 145.15 28.08 144.982 27.888L144.718 27.6L147.358 24.72C147.502 24.864 147.694 25.056 147.934 25.248C148.174 25.44 148.678 25.728 149.422 26.064C150.142 26.4 150.862 26.568 151.558 26.568C151.966 26.568 152.302 26.472 152.59 26.28C152.854 26.088 152.998 25.824 152.998 25.512C152.998 25.128 152.758 24.744 152.278 24.36C151.798 24 150.862 23.52 149.494 22.92C146.95 21.816 145.678 20.16 145.678 17.952C145.678 16.512 146.23 15.312 147.358 14.376C148.462 13.44 149.926 12.96 151.75 12.96C152.854 12.96 153.886 13.152 154.894 13.536C155.878 13.92 156.598 14.304 157.03 14.688L157.678 15.24L155.038 18.12C154.942 18.024 154.798 17.88 154.606 17.712C154.414 17.544 154.03 17.328 153.478 17.04C152.902 16.776 152.35 16.632 151.798 16.632C151.342 16.632 150.982 16.728 150.742 16.92C150.478 17.112 150.358 17.328 150.358 17.592ZM172.554 17.16H167.994V30H163.434V17.16H158.874V13.2H172.554V17.16ZM181.794 13.2L188.394 30H183.354L182.37 27.12H176.418L175.434 30H170.634L177.234 13.2H181.794ZM181.122 23.52L179.394 18.456L177.642 23.52H181.122ZM190.079 30V13.2H197.831C199.703 13.2 201.215 13.728 202.367 14.76C203.519 15.792 204.119 17.16 204.119 18.84C204.119 20.016 203.831 21.048 203.255 21.912C202.679 22.8 201.911 23.472 200.903 23.952L204.839 30H199.559L196.271 24.6H194.639V30H190.079ZM197.279 17.04H194.639V21.12H197.279C197.999 21.12 198.551 20.952 198.959 20.568C199.343 20.208 199.559 19.704 199.559 19.08C199.559 18.456 199.343 17.976 198.959 17.592C198.551 17.232 197.999 17.04 197.279 17.04ZM211.084 17.592C211.084 17.976 211.252 18.312 211.612 18.6C211.948 18.888 212.668 19.248 213.748 19.704C216.844 21.048 218.404 22.824 218.404 25.008C218.404 26.496 217.804 27.744 216.628 28.752C215.452 29.76 213.94 30.24 212.092 30.24C211.276 30.24 210.508 30.168 209.74 29.976C208.972 29.784 208.348 29.568 207.868 29.304C207.364 29.064 206.932 28.8 206.548 28.536C206.164 28.296 205.876 28.08 205.708 27.888L205.444 27.6L208.084 24.72C208.228 24.864 208.42 25.056 208.66 25.248C208.9 25.44 209.404 25.728 210.148 26.064C210.868 26.4 211.588 26.568 212.284 26.568C212.692 26.568 213.028 26.472 213.316 26.28C213.58 26.088 213.724 25.824 213.724 25.512C213.724 25.128 213.484 24.744 213.004 24.36C212.524 24 211.588 23.52 210.22 22.92C207.676 21.816 206.404 20.16 206.404 17.952C206.404 16.512 206.956 15.312 208.084 14.376C209.188 13.44 210.652 12.96 212.476 12.96C213.58 12.96 214.612 13.152 215.62 13.536C216.604 13.92 217.324 14.304 217.756 14.688L218.404 15.24L215.764 18.12C215.668 18.024 215.524 17.88 215.332 17.712C215.14 17.544 214.756 17.328 214.204 17.04C213.628 16.776 213.076 16.632 212.524 16.632C212.068 16.632 211.708 16.728 211.468 16.92C211.204 17.112 211.084 17.328 211.084 17.592ZM16.0585 52.216C15.0865 52.216 14.1805 52.06 13.3405 51.748C12.5125 51.424 11.7925 50.968 11.1805 50.38C10.5685 49.792 10.0885 49.102 9.74053 48.31C9.40453 47.518 9.23653 46.648 9.23653 45.7C9.23653 44.752 9.40453 43.882 9.74053 43.09C10.0885 42.298 10.5685 41.608 11.1805 41.02C11.8045 40.432 12.5305 39.982 13.3585 39.67C14.1865 39.346 15.0925 39.184 16.0765 39.184C17.1685 39.184 18.1525 39.376 19.0285 39.76C19.9165 40.132 20.6605 40.684 21.2605 41.416L19.3885 43.144C18.9565 42.652 18.4765 42.286 17.9485 42.046C17.4205 41.794 16.8445 41.668 16.2205 41.668C15.6325 41.668 15.0925 41.764 14.6005 41.956C14.1085 42.148 13.6825 42.424 13.3225 42.784C12.9625 43.144 12.6805 43.57 12.4765 44.062C12.2845 44.554 12.1885 45.1 12.1885 45.7C12.1885 46.3 12.2845 46.846 12.4765 47.338C12.6805 47.83 12.9625 48.256 13.3225 48.616C13.6825 48.976 14.1085 49.252 14.6005 49.444C15.0925 49.636 15.6325 49.732 16.2205 49.732C16.8445 49.732 17.4205 49.612 17.9485 49.372C18.4765 49.12 18.9565 48.742 19.3885 48.238L21.2605 49.966C20.6605 50.698 19.9165 51.256 19.0285 51.64C18.1525 52.024 17.1625 52.216 16.0585 52.216ZM31.066 52.216C30.07 52.216 29.146 52.054 28.294 51.73C27.454 51.406 26.722 50.95 26.098 50.362C25.486 49.774 25.006 49.084 24.658 48.292C24.322 47.5 24.154 46.636 24.154 45.7C24.154 44.764 24.322 43.9 24.658 43.108C25.006 42.316 25.492 41.626 26.116 41.038C26.74 40.45 27.472 39.994 28.312 39.67C29.152 39.346 30.064 39.184 31.048 39.184C32.044 39.184 32.956 39.346 33.784 39.67C34.624 39.994 35.35 40.45 35.962 41.038C36.586 41.626 37.072 42.316 37.42 43.108C37.768 43.888 37.942 44.752 37.942 45.7C37.942 46.636 37.768 47.506 37.42 48.31C37.072 49.102 36.586 49.792 35.962 50.38C35.35 50.956 34.624 51.406 33.784 51.73C32.956 52.054 32.05 52.216 31.066 52.216ZM31.048 49.732C31.612 49.732 32.128 49.636 32.596 49.444C33.076 49.252 33.496 48.976 33.856 48.616C34.216 48.256 34.492 47.83 34.684 47.338C34.888 46.846 34.99 46.3 34.99 45.7C34.99 45.1 34.888 44.554 34.684 44.062C34.492 43.57 34.216 43.144 33.856 42.784C33.508 42.424 33.094 42.148 32.614 41.956C32.134 41.764 31.612 41.668 31.048 41.668C30.484 41.668 29.962 41.764 29.482 41.956C29.014 42.148 28.6 42.424 28.24 42.784C27.88 43.144 27.598 43.57 27.394 44.062C27.202 44.554 27.106 45.1 27.106 45.7C27.106 46.288 27.202 46.834 27.394 47.338C27.598 47.83 27.874 48.256 28.222 48.616C28.582 48.976 29.002 49.252 29.482 49.444C29.962 49.636 30.484 49.732 31.048 49.732ZM42.1135 52V39.4H44.5255L49.8895 48.292H48.6115L53.8855 39.4H56.2795L56.3155 52H53.5795L53.5615 43.594H54.0655L49.8535 50.668H48.5395L44.2375 43.594H44.8495V52H42.1135ZM61.2849 52V39.4H66.7389C67.8669 39.4 68.8389 39.586 69.6549 39.958C70.4709 40.318 71.1009 40.84 71.5449 41.524C71.9889 42.208 72.2109 43.024 72.2109 43.972C72.2109 44.908 71.9889 45.718 71.5449 46.402C71.1009 47.086 70.4709 47.614 69.6549 47.986C68.8389 48.346 67.8669 48.526 66.7389 48.526H62.9049L64.2009 47.212V52H61.2849ZM64.2009 47.536L62.9049 46.15H66.5769C67.4769 46.15 68.1489 45.958 68.5929 45.574C69.0369 45.19 69.2589 44.656 69.2589 43.972C69.2589 43.276 69.0369 42.736 68.5929 42.352C68.1489 41.968 67.4769 41.776 66.5769 41.776H62.9049L64.2009 40.39V47.536ZM73.9839 52L79.5999 39.4H82.4799L88.1139 52H85.0539L80.4459 40.876H81.5979L76.9719 52H73.9839ZM76.7919 49.3L77.5659 47.086H84.0459L84.8379 49.3H76.7919ZM91.4012 52V39.4H93.8132L101.247 48.472H100.077V39.4H102.957V52H100.563L93.1112 42.928H94.2812V52H91.4012ZM111.05 52V46.852L111.716 48.616L106.172 39.4H109.268L113.516 46.474H111.734L116 39.4H118.862L113.318 48.616L113.966 46.852V52H111.05ZM129.14 52V39.4H132.056V49.624H138.374V52H129.14ZM141.983 52V39.4H144.899V52H141.983ZM149.87 52V39.4H152.282L157.646 48.292H156.368L161.642 39.4H164.036L164.072 52H161.336L161.318 43.594H161.822L157.61 50.668H156.296L151.994 43.594H152.606V52H149.87ZM169.041 52V39.4H171.957V52H169.041ZM179.537 52V41.776H175.505V39.4H186.485V41.776H182.453V52H179.537ZM192.716 44.476H198.782V46.744H192.716V44.476ZM192.932 49.66H199.79V52H190.034V39.4H199.556V41.74H192.932V49.66ZM204.09 52V39.4H209.814C211.182 39.4 212.388 39.664 213.432 40.192C214.476 40.708 215.292 41.434 215.88 42.37C216.468 43.306 216.762 44.416 216.762 45.7C216.762 46.972 216.468 48.082 215.88 49.03C215.292 49.966 214.476 50.698 213.432 51.226C212.388 51.742 211.182 52 209.814 52H204.09ZM207.006 49.606H209.67C210.51 49.606 211.236 49.45 211.848 49.138C212.472 48.814 212.952 48.358 213.288 47.77C213.636 47.182 213.81 46.492 213.81 45.7C213.81 44.896 213.636 44.206 213.288 43.63C212.952 43.042 212.472 42.592 211.848 42.28C211.236 41.956 210.51 41.794 209.67 41.794H207.006V49.606Z" fill="#072C8B"/>
<line x1="6" y1="70" x2="220.002" y2="70" stroke="#072C8B" stroke-width="2" stroke-linecap="round"/>
<path d="M14.0499 80.927C14.3493 80.0057 15.6527 80.0057 15.952 80.9271L17.0216 84.2188C17.1555 84.6309 17.5394 84.9098 17.9727 84.9098H21.4339C22.4026 84.9098 22.8054 86.1494 22.0216 86.7188L19.2215 88.7533C18.871 89.0079 18.7243 89.4593 18.8582 89.8713L19.9278 93.1631C20.2271 94.0844 19.1726 94.8506 18.3889 94.2812L15.5888 92.2467C15.2383 91.9921 14.7637 91.9921 14.4132 92.2467L11.613 94.2812C10.8293 94.8506 9.77483 94.0844 10.0742 93.1631L11.1437 89.8713C11.2776 89.4593 11.131 89.0079 10.7805 88.7533L7.98031 86.7188C7.1966 86.1494 7.59937 84.9098 8.56809 84.9098H12.0293C12.4625 84.9098 12.8465 84.6309 12.9804 84.2188L14.0499 80.927Z" fill="#072C8B"/>
<path d="M42.0499 80.927C42.3493 80.0057 43.6527 80.0057 43.952 80.9271L45.0216 84.2188C45.1555 84.6309 45.5394 84.9098 45.9727 84.9098H49.4339C50.4026 84.9098 50.8054 86.1494 50.0216 86.7188L47.2215 88.7533C46.871 89.0079 46.7243 89.4593 46.8582 89.8713L47.9278 93.1631C48.2271 94.0844 47.1726 94.8506 46.3889 94.2812L43.5888 92.2467C43.2383 91.9921 42.7637 91.9921 42.4132 92.2467L39.613 94.2812C38.8293 94.8506 37.7748 94.0844 38.0742 93.1631L39.1437 89.8713C39.2776 89.4593 39.131 89.0079 38.7805 88.7533L35.9803 86.7188C35.1966 86.1494 35.5994 84.9098 36.5681 84.9098H40.0293C40.4625 84.9098 40.8465 84.6309 40.9804 84.2188L42.0499 80.927Z" fill="#072C8B"/>
<path d="M70.0499 80.927C70.3493 80.0057 71.6527 80.0057 71.952 80.9271L73.0216 84.2188C73.1555 84.6309 73.5394 84.9098 73.9727 84.9098H77.4339C78.4026 84.9098 78.8054 86.1494 78.0216 86.7188L75.2215 88.7533C74.871 89.0079 74.7243 89.4593 74.8582 89.8713L75.9278 93.1631C76.2271 94.0844 75.1726 94.8506 74.3889 94.2812L71.5888 92.2467C71.2383 91.9921 70.7637 91.9921 70.4132 92.2467L67.613 94.2812C66.8293 94.8506 65.7748 94.0844 66.0742 93.1631L67.1437 89.8713C67.2776 89.4593 67.131 89.0079 66.7805 88.7533L63.9803 86.7188C63.1966 86.1494 63.5994 84.9098 64.5681 84.9098H68.0293C68.4625 84.9098 68.8465 84.6309 68.9804 84.2188L70.0499 80.927Z" fill="#072C8B"/>
<path d="M98.0499 80.927C98.3493 80.0057 99.6527 80.0057 99.952 80.9271L101.022 84.2188C101.155 84.6309 101.539 84.9098 101.973 84.9098H105.434C106.403 84.9098 106.805 86.1494 106.022 86.7188L103.221 88.7533C102.871 89.0079 102.724 89.4593 102.858 89.8713L103.928 93.1631C104.227 94.0844 103.173 94.8506 102.389 94.2812L99.5888 92.2467C99.2383 91.9921 98.7637 91.9921 98.4132 92.2467L95.613 94.2812C94.8293 94.8506 93.7748 94.0844 94.0742 93.1631L95.1437 89.8713C95.2776 89.4593 95.131 89.0079 94.7805 88.7533L91.9803 86.7188C91.1966 86.1494 91.5994 84.9098 92.5681 84.9098H96.0293C96.4625 84.9098 96.8465 84.6309 96.9804 84.2188L98.0499 80.927Z" fill="#072C8B"/>
<path d="M126.05 80.927C126.349 80.0057 127.653 80.0057 127.952 80.9271L129.022 84.2188C129.155 84.6309 129.539 84.9098 129.973 84.9098H133.434C134.403 84.9098 134.805 86.1494 134.022 86.7188L131.221 88.7533C130.871 89.0079 130.724 89.4593 130.858 89.8713L131.928 93.1631C132.227 94.0844 131.173 94.8506 130.389 94.2812L127.589 92.2467C127.238 91.9921 126.764 91.9921 126.413 92.2467L123.613 94.2812C122.829 94.8506 121.775 94.0844 122.074 93.1631L123.144 89.8713C123.278 89.4593 123.131 89.0079 122.78 88.7533L119.98 86.7188C119.197 86.1494 119.599 84.9098 120.568 84.9098H124.029C124.463 84.9098 124.846 84.6309 124.98 84.2188L126.05 80.927Z" fill="#072C8B"/>
<path d="M154.05 80.927C154.349 80.0057 155.653 80.0057 155.952 80.9271L157.022 84.2188C157.155 84.6309 157.539 84.9098 157.973 84.9098H161.434C162.403 84.9098 162.805 86.1494 162.022 86.7188L159.221 88.7533C158.871 89.0079 158.724 89.4593 158.858 89.8713L159.928 93.1631C160.227 94.0844 159.173 94.8506 158.389 94.2812L155.589 92.2467C155.238 91.9921 154.764 91.9921 154.413 92.2467L151.613 94.2812C150.829 94.8506 149.775 94.0844 150.074 93.1631L151.144 89.8713C151.278 89.4593 151.131 89.0079 150.78 88.7533L147.98 86.7188C147.197 86.1494 147.599 84.9098 148.568 84.9098H152.029C152.463 84.9098 152.846 84.6309 152.98 84.2188L154.05 80.927Z" fill="#072C8B"/>
<path d="M182.05 80.927C182.349 80.0057 183.653 80.0057 183.952 80.9271L185.022 84.2188C185.155 84.6309 185.539 84.9098 185.973 84.9098H189.434C190.403 84.9098 190.805 86.1494 190.022 86.7188L187.221 88.7533C186.871 89.0079 186.724 89.4593 186.858 89.8713L187.928 93.1631C188.227 94.0844 187.173 94.8506 186.389 94.2812L183.589 92.2467C183.238 91.9921 182.764 91.9921 182.413 92.2467L179.613 94.2812C178.829 94.8506 177.775 94.0844 178.074 93.1631L179.144 89.8713C179.278 89.4593 179.131 89.0079 178.78 88.7533L175.98 86.7188C175.197 86.1494 175.599 84.9098 176.568 84.9098H180.029C180.463 84.9098 180.846 84.6309 180.98 84.2188L182.05 80.927Z" fill="#072C8B"/>
<path d="M210.05 80.927C210.349 80.0057 211.653 80.0057 211.952 80.9271L213.022 84.2188C213.155 84.6309 213.539 84.9098 213.973 84.9098H217.434C218.403 84.9098 218.805 86.1494 218.022 86.7188L215.221 88.7533C214.871 89.0079 214.724 89.4593 214.858 89.8713L215.928 93.1631C216.227 94.0844 215.173 94.8506 214.389 94.2812L211.589 92.2467C211.238 91.9921 210.764 91.9921 210.413 92.2467L207.613 94.2812C206.829 94.8506 205.775 94.0844 206.074 93.1631L207.144 89.8713C207.278 89.4593 207.131 89.0079 206.78 88.7533L203.98 86.7188C203.197 86.1494 203.599 84.9098 204.568 84.9098H208.029C208.463 84.9098 208.846 84.6309 208.98 84.2188L210.05 80.927Z" fill="#072C8B"/>
</svg>
