<svg width="44" height="261" viewBox="0 0 44 261" fill="none" xmlns="http://www.w3.org/2000/svg">
<g id="Group 47">
<g id="Line 12" filter="url(#filter0_d_771_1915)">
<path d="M22 22.6875L22 238.548" stroke="#FFD27F" stroke-width="4" stroke-linecap="round"/>
</g>
<path id="Ellipse 29" d="M22 5.5C27.3441 5.5 31.5 9.5249 31.5 14.2793C31.4999 19.0336 27.344 23.0586 22 23.0586C16.656 23.0586 12.5001 19.0336 12.5 14.2793C12.5 9.5249 16.6559 5.5 22 5.5Z" fill="#072C8B" stroke="#FFA600" stroke-width="3"/>
<path id="Ellipse 30" d="M22 240.051C27.3441 240.051 31.5 244.076 31.5 248.83C31.4999 253.584 27.344 257.609 22 257.609C16.656 257.609 12.5001 253.584 12.5 248.83C12.5 244.076 16.6559 240.051 22 240.051Z" fill="#072C8B" stroke="#FFA600" stroke-width="3"/>
</g>
<defs>
<filter id="filter0_d_771_1915" x="0" y="0.6875" width="44" height="259.86" filterUnits="userSpaceOnUse" color-interpolation-filters="sRGB">
<feFlood flood-opacity="0" result="BackgroundImageFix"/>
<feColorMatrix in="SourceAlpha" type="matrix" values="0 0 0 0 0 0 0 0 0 0 0 0 0 0 0 0 0 0 127 0" result="hardAlpha"/>
<feOffset/>
<feGaussianBlur stdDeviation="10"/>
<feComposite in2="hardAlpha" operator="out"/>
<feColorMatrix type="matrix" values="0 0 0 0 0 0 0 0 0 0 0 0 0 0 0 0 0 0 0.25 0"/>
<feBlend mode="normal" in2="BackgroundImageFix" result="effect1_dropShadow_771_1915"/>
<feBlend mode="normal" in="SourceGraphic" in2="effect1_dropShadow_771_1915" result="shape"/>
</filter>
</defs>
</svg>
